<?xml version="1.0" standalone="no"?>
<!DOCTYPE svg PUBLIC "-//W3C//DTD SVG 20010904//EN"
 "http://www.w3.org/TR/2001/REC-SVG-20010904/DTD/svg10.dtd">
<svg version="1.0" xmlns="http://www.w3.org/2000/svg"
 width="192.000000pt" height="192.000000pt" viewBox="0 0 192.000000 192.000000"
 preserveAspectRatio="xMidYMid meet">
<metadata>
Created by potrace 1.14, written by Peter Selinger 2001-2017
</metadata>
<g transform="translate(0.000000,192.000000) scale(0.100000,-0.100000)"
fill="#000000" stroke="none">
<path d="M859 1794 c-572 -64 -936 -545 -760 -1004 19 -51 92 -180 76 -135
-33 90 -46 159 -46 250 0 111 3 134 31 213 64 182 265 334 485 369 17 3 48 8
70 12 22 4 69 7 105 6 195 -5 361 -76 502 -216 22 -21 43 -39 46 -40 32 -5
476 -3 484 2 6 4 -6 38 -31 85 -132 254 -406 426 -731 459 -103 11 -125 11
-231 -1z"/>
<path d="M738 1455 c-1 -2 -22 -6 -45 -10 -198 -29 -399 -164 -472 -317 -63
-133 -74 -315 -28 -460 67 -212 328 -392 647 -448 61 -11 253 -15 295 -6 38 7
105 18 107 16 9 -5 194 68 248 98 155 85 292 223 352 352 13 30 3 22 -71 -50
-75 -75 -226 -190 -247 -190 -4 0 -15 -6 -23 -14 -22 -18 -143 -63 -218 -80
-208 -47 -480 28 -624 173 -75 75 -114 149 -133 249 -13 71 -13 73 -2 169 17
163 113 311 245 377 154 78 363 70 505 -19 l41 -26 -40 35 c-51 46 -175 111
-251 132 -51 14 -276 29 -286 19z"/>
<path d="M712 1121 c-20 -12 -24 -78 -6 -96 19 -18 25 -19 49 -2 10 8 15 19
11 26 -6 9 -11 9 -23 0 -18 -16 -33 3 -26 32 4 13 13 17 34 16 24 -2 30 -7 35
-34 7 -36 28 -60 38 -44 16 25 33 101 25 107 -5 3 -13 -5 -18 -18 -4 -13 -11
-30 -14 -38 -3 -8 -6 -10 -6 -3 -1 6 -6 24 -11 38 -8 22 -13 25 -24 16 -10 -8
-16 -9 -21 -1 -7 12 -25 13 -43 1z"/>
<path d="M920 1120 c-9 -5 -15 -25 -15 -50 0 -40 14 -59 42 -60 15 0 37 39 27
48 -4 4 -9 1 -11 -5 -9 -27 -33 -13 -33 18 0 28 2 31 25 25 27 -7 32 3 13 22
-14 14 -28 15 -48 2z"/>
<path d="M980 1123 c1 -5 7 -19 15 -33 8 -14 14 -38 15 -54 0 -24 2 -27 15
-16 9 7 14 18 12 24 -5 12 20 66 29 66 3 0 4 -18 1 -40 -6 -50 15 -66 56 -45
16 8 26 9 24 3 -1 -6 18 -11 46 -12 42 -1 48 2 55 24 9 25 9 25 16 3 4 -11 13
-24 21 -27 18 -6 18 -5 5 28 -6 16 -6 27 0 31 12 8 12 16 1 34 -14 22 -129 23
-141 2 -8 -14 -9 -14 -15 0 -6 15 -35 18 -97 10 -5 -1 -8 -9 -8 -18 0 -14 -3
-13 -20 5 -22 23 -30 27 -30 15z m243 -69 c-5 -13 -53 -16 -53 -3 0 5 9 9 20
9 28 0 26 30 -2 31 -22 1 -22 1 2 8 20 6 26 3 31 -13 3 -12 4 -26 2 -32z m47
36 c0 -5 -4 -10 -10 -10 -5 0 -10 5 -10 10 0 6 5 10 10 10 6 0 10 -4 10 -10z
m-123 -22 c2 -17 0 -19 -7 -8 -5 8 -6 18 -4 22 8 12 10 10 11 -14z m-27 -12
c0 -11 -19 -15 -25 -6 -3 5 1 10 9 10 9 0 16 -2 16 -4z"/>
<path d="M1339 1126 c-1 -1 -3 -24 -4 -53 -2 -32 2 -53 9 -55 6 -2 53 -3 105
-3 65 0 96 4 99 13 3 10 -17 17 -40 13 -5 0 -8 4 -8 9 0 6 9 10 20 10 27 0 25
28 -2 33 -20 4 -19 4 5 6 24 1 27 -3 27 -28 0 -51 49 -81 69 -42 13 23 3 35
-16 19 -11 -9 -17 -9 -24 3 -18 27 -5 43 37 45 l40 2 0 -39 c-1 -51 18 -51 22
1 2 28 8 40 18 40 9 0 14 -8 13 -17 -4 -47 1 -72 15 -67 8 3 12 12 9 20 -3 8
0 14 5 14 6 0 13 -8 16 -18 7 -21 36 -22 59 -4 11 10 17 9 27 -3 16 -20 29
-10 23 18 -22 97 -45 108 -64 30 -14 -52 -23 -48 -24 10 l0 42 -68 0 c-38 0
-71 -3 -73 -7 -3 -4 -14 -2 -24 5 -16 9 -24 9 -41 -2 -12 -7 -24 -9 -28 -4 -7
10 -46 11 -57 1 -4 -4 -7 -22 -8 -40 -1 -26 -6 -33 -21 -33 -16 0 -20 7 -20
39 l-1 39 -47 2 c-26 0 -48 1 -48 1z m70 -58 c0 -24 -3 -38 -5 -32 -3 7 -14
10 -24 7 -11 -3 -20 0 -20 6 0 6 9 11 20 11 12 0 20 7 20 16 0 10 -6 14 -15
11 -8 -4 -17 -2 -20 3 -3 5 5 11 17 13 13 2 24 5 26 6 1 0 2 -18 1 -41z m341
22 c0 -5 -2 -10 -4 -10 -3 0 -8 5 -11 10 -3 6 -1 10 4 10 6 0 11 -4 11 -10z
m84 -15 c3 -8 1 -15 -4 -15 -6 0 -10 7 -10 15 0 8 2 15 4 15 2 0 6 -7 10 -15z"/>
<path d="M844 1039 c-3 -6 -1 -16 5 -22 6 -6 11 -9 12 -6 0 2 2 12 4 22 4 19
-10 23 -21 6z"/>
<path d="M592 978 c-59 -266 68 -485 330 -572 125 -41 254 -49 371 -21 94 23
234 91 322 157 70 53 189 167 182 174 -2 2 -109 5 -238 6 l-234 1 -45 -32
c-107 -79 -234 -105 -363 -75 -188 44 -321 198 -311 361 2 29 2 53 0 53 -1 0
-8 -24 -14 -52z"/>
</g>
</svg>
